# xmcd
# Track frame offsets:
# 150
# 17462
# 34757
# 51765
# 68947
# 83930
# 98447
# 113210
# 129732
# 144105
#
# Disc length: 2152 seconds
# Revision: 0
# Processed by: cddbd v1.4PL0 Copyright (c) Steve Scherf et al.
# Submitted via: VisiTrax 2.9.5.181 - For more info visit www.synapsa.com
#
DISCID=7a08660a
DTITLE=Funky White Devils - Devilicious
DYEAR=1998
DGENRE=
TTITLE0=Friday night
TTITLE1=Hot chocolate
TTITLE2=Hey you
TTITLE3=Back 2 da N.B.
TTITLE4=Hip 2 da jive
TTITLE5=Leave my style alone
TTITLE6=Bootnocka
TTITLE7=Telle me why
TTITLE8=Girls
TTITLE9=Bittersweet
EXTD=
EXTT0=
EXTT1=
EXTT2=
EXTT3=
EXTT4=
EXTT5=
EXTT6=
EXTT7=
EXTT8=
EXTT9=
PLAYORDER=
